<?xml version="1.0" standalone="no"?>
<!DOCTYPE svg PUBLIC "-//W3C//DTD SVG 20010904//EN"
 "http://www.w3.org/TR/2001/REC-SVG-20010904/DTD/svg10.dtd">
<svg version="1.0" xmlns="http://www.w3.org/2000/svg"
 width="920.000000pt" height="922.000000pt" viewBox="0 0 920.000000 922.000000"
 preserveAspectRatio="xMidYMid meet">

<g transform="translate(0.000000,922.000000) scale(0.100000,-0.100000)"
fill="#000000" stroke="none">
<path d="M6690 9195 c-406 -50 -758 -192 -1089 -437 -141 -105 -2096 -2061
-2202 -2203 -301 -406 -449 -852 -449 -1355 0 -432 103 -803 322 -1169 123
-204 338 -448 444 -504 186 -98 395 -68 553 79 108 100 167 267 143 407 -15
89 -48 170 -90 221 -20 25 -73 87 -117 139 -384 454 -404 1109 -48 1596 66 90
1828 1862 1969 1980 246 205 511 301 831 301 237 0 443 -54 638 -167 586 -338
812 -1075 516 -1678 -33 -67 -87 -159 -122 -205 -38 -52 -238 -261 -517 -542
-250 -251 -464 -471 -476 -490 -61 -90 -91 -252 -66 -359 42 -181 175 -317
355 -364 111 -29 233 -13 339 42 64 34 947 908 1069 1058 209 258 358 551 433
855 88 354 96 674 24 1028 -157 770 -724 1410 -1478 1667 -293 99 -673 138
-982 100z"/>
<path d="M5143 5735 c-271 -73 -424 -357 -334 -618 29 -83 44 -108 120 -191
39 -43 93 -108 120 -144 107 -142 204 -371 232 -547 16 -101 17 -328 1 -421
-31 -189 -121 -403 -233 -554 -43 -58 -348 -372 -973 -998 -501 -502 -947
-944 -991 -981 -246 -210 -519 -311 -841 -311 -433 0 -828 210 -1071 570 -53
79 -132 247 -158 337 -74 254 -70 550 11 791 36 108 117 262 188 356 34 45
262 283 513 536 249 251 464 471 477 490 118 175 92 440 -57 591 -152 155
-382 191 -571 92 -62 -33 -931 -891 -1061 -1048 -377 -456 -559 -1045 -504
-1635 36 -385 162 -737 380 -1062 168 -250 421 -490 685 -651 498 -303 1096
-400 1672 -271 305 68 613 214 872 412 101 77 1991 1959 2112 2102 309 366
491 828 516 1305 24 462 -75 885 -295 1260 -148 252 -346 483 -471 548 -109
57 -228 71 -339 42z"/>
</g>
</svg>
